# Blender v2.79 (sub 0) OBJ File: 'cornell-box-cycles.blend'
# www.blender.org
mtllib cornell-box.mtl
o area_light
v -0.884011 3.31933 -5.51797
v -0.884011 3.3185 -6.56797
v 0.415989 3.3185 -6.56797
v 0.415989 3.31933 -5.51797
vn 0.0000 -1.0000 0.0008
usemtl Light
s off
f 2//1 4//1 1//1
f 2//1 3//1 4//1
o back_wall
v -2.950011 -2.16269 -8.8356
v 2.545989 -2.16269 -8.8356
v 2.545989 3.32531 -8.83997
v -3.014011 3.32531 -8.83997
vn 0.0000 0.0008 1.0000
usemtl Khaki
s off
f 5//2 7//2 8//2
f 5//2 6//2 7//2
o ceiling
v -3.014011 3.32977 -3.24797
v -3.014011 3.32531 -8.83997
v 2.545989 3.32531 -8.83997
v 2.545989 3.32977 -3.24797
vn 0.0000 -1.0000 0.0008
usemtl Khaki
s off
# f 10//3 12//3 9//3
# f 10//3 11//3 12//3
o floor
v -2.982011 -2.15823 -3.2436
v 2.545989 -2.15823 -3.2436
v 2.545989 -2.16269 -8.8356
v -2.950011 -2.16269 -8.8356
vn 0.0000 1.0000 -0.0008
usemtl Khaki
s off
f 14//4 16//4 13//4
f 14//4 15//4 16//4
o left_wall
v -2.982011 -2.15823 -3.2436
v -2.950011 -2.16269 -8.8356
v -3.014011 3.32531 -8.83997
v -3.014011 3.32977 -3.24797
vn 1.0000 0.0058 -0.0000
vn 0.9999 0.0117 0.0057
usemtl BloodyRed
s off
f 17//5 19//5 20//5
f 17//6 18//6 19//6
o right_wall
v 2.545989 -2.16269 -8.8356
v 2.545989 -2.15823 -3.2436
v 2.545989 3.32977 -3.24797
v 2.545989 3.32531 -8.83997
vn -1.0000 0.0000 0.0000
usemtl DarkGreen
s off
f 22//7 24//7 21//7
f 22//7 23//7 24//7
o short_box
v 1.245989 -0.508751 -3.89491
v 1.725989 -0.510025 -5.49491
v 0.145989 -0.510399 -5.96491
v -0.354011 -0.509141 -4.38491
v -0.354011 -2.15914 -4.3836
v -0.354011 -0.509141 -4.38491
v 0.145989 -0.510399 -5.96491
v 0.145989 -2.1604 -5.9636
v 1.245989 -2.15875 -3.8936
v 1.245989 -0.508751 -3.89491
v -0.354011 -0.509141 -4.38491
v -0.354011 -2.15914 -4.3836
v 1.725989 -2.16002 -5.4936
v 1.725989 -0.510025 -5.49491
v 1.245989 -0.508751 -3.89491
v 1.245989 -2.15875 -3.8936
v 0.145989 -2.1604 -5.9636
v 0.145989 -0.510399 -5.96491
v 1.725989 -0.510025 -5.49491
v 1.725989 -2.16002 -5.4936
vn 0.0000 1.0000 -0.0008
vn -0.9534 -0.0002 -0.3017
vn -0.2928 0.0008 0.9562
vn 0.9578 0.0002 0.2873
vn 0.2851 -0.0008 -0.9585
usemtl Khaki
s off
f 25//8 27//8 28//8
f 30//9 32//9 29//9
f 34//10 36//10 33//10
f 38//11 40//11 37//11
f 42//12 44//12 41//12
f 25//8 26//8 27//8
f 30//9 31//9 32//9
f 34//10 35//10 36//10
f 38//11 39//11 40//11
f 42//12 43//12 44//12
o tall_box
v -1.684011 1.1398 -5.71623
v -0.104011 1.13941 -6.20623
v -0.594011 1.13814 -7.80623
v -2.174011 1.13853 -7.30623
v -1.684011 -2.1602 -5.7136
v -1.684011 1.1398 -5.71623
v -2.174011 1.13853 -7.30623
v -2.174011 -2.16147 -7.3036
v -2.174011 -2.16147 -7.3036
v -2.174011 1.13853 -7.30623
v -0.594011 1.13814 -7.80623
v -0.594011 -2.16186 -7.8036
v -0.594011 -2.16186 -7.8036
v -0.594011 1.13814 -7.80623
v -0.104011 1.13941 -6.20623
v -0.104011 -2.16059 -6.2036
v -0.104011 -2.16059 -6.2036
v -0.104011 1.13941 -6.20623
v -1.684011 1.1398 -5.71623
v -1.684011 -2.1602 -5.7136
vn -0.0000 1.0000 -0.0008
vn -0.9556 0.0002 0.2945
vn -0.3017 -0.0008 -0.9534
vn 0.9562 -0.0002 -0.2928
vn 0.2962 0.0008 0.9551
usemtl Khaki
s off
f 46//13 48//13 45//13
f 49//14 51//14 52//14
f 54//15 56//15 53//15
f 58//16 60//16 57//16
f 62//17 64//17 61//17
f 46//13 47//13 48//13
f 49//14 50//14 51//14
f 54//15 55//15 56//15
f 58//16 59//16 60//16
f 62//17 63//17 64//17
